<svg width="302" height="50" viewBox="0 0 302 50" fill="none" xmlns="http://www.w3.org/2000/svg">
<path d="M13.312 37.384C10.848 37.384 8.624 36.84 6.64 35.752C4.688 34.632 3.136 33.064 1.984 31.048C0.864 29 0.304 26.616 0.304 23.896C0.304 21.176 0.88 18.808 2.032 16.792C3.184 14.744 4.752 13.176 6.736 12.088C8.72 10.968 10.944 10.408 13.408 10.408C15.872 10.408 18.096 10.968 20.08 12.088C22.096 13.176 23.664 14.744 24.784 16.792C25.936 18.808 26.512 21.176 26.512 23.896C26.512 26.584 25.936 28.952 24.784 31C23.632 33.048 22.048 34.632 20.032 35.752C18.016 36.84 15.776 37.384 13.312 37.384ZM13.312 34.456C15.04 34.456 16.64 34.072 18.112 33.304C19.584 32.504 20.768 31.32 21.664 29.752C22.592 28.152 23.056 26.2 23.056 23.896C23.056 21.592 22.608 19.656 21.712 18.088C20.816 16.488 19.632 15.304 18.16 14.536C16.688 13.736 15.088 13.336 13.36 13.336C11.632 13.336 10.032 13.736 8.56 14.536C7.088 15.304 5.904 16.488 5.008 18.088C4.144 19.656 3.712 21.592 3.712 23.896C3.712 26.2 4.144 28.152 5.008 29.752C5.904 31.32 7.072 32.504 8.512 33.304C9.984 34.072 11.584 34.456 13.312 34.456ZM31.1009 23.896C31.1009 21.176 31.6449 18.808 32.7329 16.792C33.8209 14.744 35.3249 13.176 37.2449 12.088C39.1649 10.968 41.3569 10.408 43.8209 10.408C47.0529 10.408 49.7089 11.208 51.7889 12.808C53.9009 14.408 55.2609 16.584 55.8689 19.336H52.2689C51.8209 17.448 50.8449 15.976 49.3409 14.92C47.8689 13.832 46.0289 13.288 43.8209 13.288C42.0609 13.288 40.4769 13.688 39.0689 14.488C37.6609 15.288 36.5409 16.488 35.7089 18.088C34.9089 19.656 34.5089 21.592 34.5089 23.896C34.5089 26.2 34.9089 28.152 35.7089 29.752C36.5409 31.352 37.6609 32.552 39.0689 33.352C40.4769 34.152 42.0609 34.552 43.8209 34.552C46.0289 34.552 47.8689 34.024 49.3409 32.968C50.8449 31.88 51.8209 30.376 52.2689 28.456H55.8689C55.2609 31.144 53.9009 33.304 51.7889 34.936C49.6769 36.568 47.0209 37.384 43.8209 37.384C41.3569 37.384 39.1649 36.84 37.2449 35.752C35.3249 34.632 33.8209 33.064 32.7329 31.048C31.6449 29 31.1009 26.616 31.1009 23.896ZM85.7864 22.552C85.7864 23.704 85.7544 24.584 85.6904 25.192H63.9464C64.0424 27.176 64.5224 28.872 65.3864 30.28C66.2504 31.688 67.3864 32.76 68.7944 33.496C70.2024 34.2 71.7384 34.552 73.4024 34.552C75.5784 34.552 77.4024 34.024 78.8744 32.968C80.3784 31.912 81.3704 30.488 81.8504 28.696H85.4024C84.7624 31.256 83.3864 33.352 81.2744 34.984C79.1944 36.584 76.5704 37.384 73.4024 37.384C70.9384 37.384 68.7304 36.84 66.7784 35.752C64.8264 34.632 63.2904 33.064 62.1704 31.048C61.0824 29 60.5384 26.616 60.5384 23.896C60.5384 21.176 61.0824 18.792 62.1704 16.744C63.2584 14.696 64.7784 13.128 66.7304 12.04C68.6824 10.952 70.9064 10.408 73.4024 10.408C75.8984 10.408 78.0744 10.952 79.9304 12.04C81.8184 13.128 83.2584 14.6 84.2504 16.456C85.2744 18.28 85.7864 20.312 85.7864 22.552ZM82.3784 22.456C82.4104 20.504 82.0104 18.84 81.1784 17.464C80.3784 16.088 79.2744 15.048 77.8664 14.344C76.4584 13.64 74.9224 13.288 73.2584 13.288C70.7624 13.288 68.6344 14.088 66.8744 15.688C65.1144 17.288 64.1384 19.544 63.9464 22.456H82.3784ZM90.3978 23.848C90.3978 21.16 90.9258 18.808 91.9818 16.792C93.0698 14.744 94.5578 13.176 96.4458 12.088C98.3658 10.968 100.526 10.408 102.926 10.408C105.422 10.408 107.566 10.984 109.358 12.136C111.182 13.288 112.494 14.76 113.294 16.552V10.792H116.654V37H113.294V31.192C112.462 32.984 111.134 34.472 109.31 35.656C107.518 36.808 105.374 37.384 102.878 37.384C100.51 37.384 98.3658 36.824 96.4458 35.704C94.5578 34.584 93.0698 33 91.9818 30.952C90.9258 28.904 90.3978 26.536 90.3978 23.848ZM113.294 23.896C113.294 21.784 112.862 19.928 111.998 18.328C111.134 16.728 109.95 15.496 108.446 14.632C106.974 13.768 105.342 13.336 103.55 13.336C101.694 13.336 100.03 13.752 98.5578 14.584C97.0858 15.416 95.9178 16.632 95.0538 18.232C94.2218 19.8 93.8058 21.672 93.8058 23.848C93.8058 25.992 94.2218 27.88 95.0538 29.512C95.9178 31.112 97.0858 32.344 98.5578 33.208C100.03 34.04 101.694 34.456 103.55 34.456C105.342 34.456 106.974 34.024 108.446 33.16C109.95 32.296 111.134 31.064 111.998 29.464C112.862 27.864 113.294 26.008 113.294 23.896ZM136.612 10.312C139.748 10.312 142.308 11.288 144.292 13.24C146.276 15.16 147.268 17.96 147.268 21.64V37H143.956V22.024C143.956 19.176 143.236 17 141.796 15.496C140.388 13.992 138.452 13.24 135.988 13.24C133.46 13.24 131.444 14.04 129.94 15.64C128.436 17.24 127.684 19.592 127.684 22.696V37H124.324V10.792H127.684V15.256C128.516 13.656 129.716 12.44 131.284 11.608C132.852 10.744 134.628 10.312 136.612 10.312Z" fill="#B8A785"/>
<path d="M158.923 1.48V37H154.555V1.48H158.923ZM168.624 6.424C167.792 6.424 167.088 6.136 166.512 5.56C165.936 4.984 165.648 4.28 165.648 3.448C165.648 2.616 165.936 1.912 166.512 1.336C167.088 0.759998 167.792 0.471998 168.624 0.471998C169.424 0.471998 170.096 0.759998 170.64 1.336C171.216 1.912 171.504 2.616 171.504 3.448C171.504 4.28 171.216 4.984 170.64 5.56C170.096 6.136 169.424 6.424 168.624 6.424ZM170.736 10.696V37H166.368V10.696H170.736ZM182.548 15.592C183.444 14.024 184.756 12.744 186.484 11.752C188.212 10.76 190.18 10.264 192.388 10.264C194.756 10.264 196.884 10.824 198.772 11.944C200.66 13.064 202.148 14.648 203.236 16.696C204.324 18.712 204.868 21.064 204.868 23.752C204.868 26.408 204.324 28.776 203.236 30.856C202.148 32.936 200.644 34.552 198.724 35.704C196.836 36.856 194.724 37.432 192.388 37.432C190.116 37.432 188.116 36.936 186.388 35.944C184.692 34.952 183.412 33.688 182.548 32.152V37H178.18V1.48H182.548V15.592ZM200.404 23.752C200.404 21.768 200.004 20.04 199.204 18.568C198.404 17.096 197.316 15.976 195.94 15.208C194.596 14.44 193.108 14.056 191.476 14.056C189.876 14.056 188.388 14.456 187.012 15.256C185.668 16.024 184.58 17.16 183.748 18.664C182.948 20.136 182.548 21.848 182.548 23.8C182.548 25.784 182.948 27.528 183.748 29.032C184.58 30.504 185.668 31.64 187.012 32.44C188.388 33.208 189.876 33.592 191.476 33.592C193.108 33.592 194.596 33.208 195.94 32.44C197.316 31.64 198.404 30.504 199.204 29.032C200.004 27.528 200.404 25.768 200.404 23.752ZM214.986 14.968C215.754 13.464 216.842 12.296 218.25 11.464C219.69 10.632 221.434 10.216 223.482 10.216V14.728H222.33C217.434 14.728 214.986 17.384 214.986 22.696V37H210.618V10.696H214.986V14.968ZM226.892 23.752C226.892 21.064 227.436 18.712 228.524 16.696C229.612 14.648 231.1 13.064 232.988 11.944C234.908 10.824 237.036 10.264 239.372 10.264C241.676 10.264 243.676 10.76 245.372 11.752C247.068 12.744 248.332 13.992 249.164 15.496V10.696H253.58V37H249.164V32.104C248.3 33.64 247.004 34.92 245.276 35.944C243.58 36.936 241.596 37.432 239.324 37.432C236.988 37.432 234.876 36.856 232.988 35.704C231.1 34.552 229.612 32.936 228.524 30.856C227.436 28.776 226.892 26.408 226.892 23.752ZM249.164 23.8C249.164 21.816 248.764 20.088 247.964 18.616C247.164 17.144 246.076 16.024 244.7 15.256C243.356 14.456 241.868 14.056 240.236 14.056C238.604 14.056 237.116 14.44 235.772 15.208C234.428 15.976 233.356 17.096 232.556 18.568C231.756 20.04 231.356 21.768 231.356 23.752C231.356 25.768 231.756 27.528 232.556 29.032C233.356 30.504 234.428 31.64 235.772 32.44C237.116 33.208 238.604 33.592 240.236 33.592C241.868 33.592 243.356 33.208 244.7 32.44C246.076 31.64 247.164 30.504 247.964 29.032C248.764 27.528 249.164 25.784 249.164 23.8ZM265.33 14.968C266.098 13.464 267.186 12.296 268.594 11.464C270.034 10.632 271.778 10.216 273.826 10.216V14.728H272.674C267.778 14.728 265.33 17.384 265.33 22.696V37H260.962V10.696H265.33V14.968ZM301.524 10.696L285.684 49.384H281.172L286.356 36.712L275.748 10.696H280.596L288.852 32.008L297.012 10.696H301.524Z" fill="#726522"/>
</svg>
